<svg id="Capa_1" enable-background="new 0 0 511.989 511.989" height="512" viewBox="0 0 511.989 511.989" width="512" xmlns="http://www.w3.org/2000/svg"><g><path d="m179.01 397.434-52.183-238.358c-4.564-20.848-4.025-42.038 1.252-62.019-14.085 1.385-27.793 5.728-40.405 12.883-27.058 15.35-45.446 41.762-50.452 72.465-5.006 30.704 4.042 61.59 24.823 84.739z"/><path d="m85.229 476.073v7.343h84.679l-81.004-28.848c-2.417 6.867-3.675 14.141-3.675 21.505z"/><path d="m42.462 290.238c-13.785 4.301-25.404 13.246-33.225 25.785-9.789 15.696-11.911 34.715-5.82 52.182 6.09 17.466 19.577 31.043 37.003 37.25l152.214 54.209-.621-2.838z"/><path d="m385.161 159.077-52.182 238.358 116.965-130.29c20.781-23.149 29.829-54.036 24.823-84.739s-23.395-57.115-50.452-72.465c-12.612-7.155-26.32-11.497-40.406-12.882 5.276 19.981 5.816 41.17 1.252 62.018z"/><path d="m502.752 316.024c-7.821-12.54-19.44-21.485-33.225-25.786l-149.551 166.588-.621 2.838 152.214-54.209c17.426-6.207 30.913-19.783 37.003-37.25 6.091-17.466 3.969-36.485-5.82-52.181z"/><path d="m335.634 66.707c-19.504-24.235-48.531-38.135-79.64-38.135s-60.137 13.9-79.641 38.136c-19.503 24.235-26.873 55.563-20.22 85.952l66.54 303.94c3.401 15.538 17.414 26.815 33.32 26.815s29.919-11.277 33.32-26.815l66.54-303.94c6.655-30.388-.715-61.717-20.219-85.953z"/><path d="m342.08 483.416h84.679v-7.343c0-7.364-1.259-14.638-3.676-21.505z"/></g></svg>